<?xml version="1.0" encoding="UTF-8"?>
<svg version="1.1" viewBox="0 0 2048 1314" width="623" height="400" xmlns="http://www.w3.org/2000/svg">
<path transform="translate(930,238)" d="m0 0h17l17 3 20 8 12 7 10 8 11 11 9 13 8 16 5 15 2 12v35l13 2 36 3 6 1v2l-11 7-5 4-5 7-5 13-13 57-12 54-7 32-4 10-1 1-21-1-67-6-65-6-62-5-10-2-3-7-1-9-5-91v-9l1-1h17l75 6 72 6 28 3 14 1h12l6-4 3-5 1-6-3-7-5-4-36-4-194-17h-11l-6 4-3 6v21l6 104 3 32 1 4 5 2 7 2 85 8 108 9 43 4 19 1 7-3 4-4 4-13 11-50 8-33 15-70 5-12 5-4 16-5 55-12 38-8h9l6 4 5 6 1 9-3 6-6 5-10 3-53 11-26 6-4 4-4 10-12 44-14 56-19 74-5 20-4 7-4 3h-18l-7-2-12-16-7-7-14-8-13-4-8-1h-10l-10 2-13 5-9 6-10 9-3 4h-24l-21-2-5-2-9-12-9-10-10-6-11-5-8-2h-23l-11 3-12 6-10 9-1 2h-2l-1 3-4 3h-17l-9-3-6-7-2-12-10-130-7-79v-17l4-11 7-8 9-5 6-2h21l41 4 15 1 1-16 4-19 5-13 8-15 13-16 12-10 18-11 12-5 17-4zm-4 30-17 4-16 8-10 8-9 10-8 14-5 16-2 15v7l5 2 36 4 98 8h10l3-7v-22l-4-17-4-10-8-12-9-10-14-10-13-6-8-2zm-81 180-4 2-3 5v7l5 6 7 2 148 13h11l5-3 3-5v-7l-5-5-5-2-87-8-59-5zm-2 49-5 2-4 5-1 6 4 7 8 3 150 13h10l6-5 1-2v-8l-5-5-5-2-62-6-45-4-50-4z" fill="#49D5E8"/>
<path transform="translate(930,238)" d="m0 0h17l17 3 20 8 12 7 10 8 11 11 9 13 8 16 5 15 2 12v35l13 2 36 3 6 1v2l-11 7-5 4-5 7-5 13-13 57-12 54-7 32-4 10-1 1-21-1-67-6-65-6-62-5-10-2-3-7-1-9-5-91v-9l1-1h17l75 6 72 6 28 3 14 1h12l6-4 3-5 1-6-3-7-5-4-36-4-56-5-3-2 2-3h3v-2l9-5 3-6h5l5-10 1-5h3l-14-4v-2h-5l-1-3-7-1-1-2 20 1 50 4h10l2-6v-22l-4-17-4-10-8-12-8-9-14-10-13-6-8-2h-25l-17 4-11 5-3-1 4-4h2l1-3 9-4 10-3 3-3h2l1-4 3-3 4-7-2-3h-10l-10 2-8 3-7 2-5 3-4 1v2l-16 8-5 5-8 5 1-5 12-10 18-11 12-5 17-4zm-85 210-4 2-3 5v7l5 6 7 2 148 13h11l5-3 3-5v-7l-5-5-5-2-87-8-59-5zm-2 49-5 2-4 5-1 6 4 7 8 3 150 13h10l6-5 1-2v-8l-5-5-5-2-62-6-45-4-50-4z" fill="#36F7E2"/>
<path transform="translate(1215,374)" d="m0 0h9l6 4 5 6 1 9-3 6-6 5-10 3-53 11-26 6-4 4-4 10-12 44-14 56-19 74-5 20-4 7-4 3h-18l-7-2-12-16-7-7-14-8-13-4-8-1h-10l-10 2-13 5-9 6-10 9-3 4h-24l-16-2-3-2 2-4 10-2 2-2-2-2h3l-2-7-2-2 1-5h2v-2h-2v-2h5v-3h8l1-3-2-2 1-1-5-1-3-1v-2l-4-1-7-3 1-3h21l62 5 43 4 19 1 7-3 4-4 4-13 11-50 8-33 15-70 5-12 5-4 16-5 55-12z" fill="#36F7E1"/>
<path transform="translate(800,422)" d="m0 0h17l75 6 37 3v1l-6 1 7 3v2l11-1 18 5 6 3 4 1-2 4-10 4h-3l-1-3h-20l-6 3-18-1-48-4h-16l-4 1-2 5v7l4 5 7 2 35 3-1 2 5 2h9l5 1 6-1 6 3 18 4 13 4 3 1h5l-4 3-10 5-3 3-5 1-7-1-9 4h-10l-45-4-18-1-5 2-3 4-1 6 3 6 8 3 54 5-1 2 16 4 17 2 20 4-1 2 5 1v4l-4 1-5 1-11 1h-10l-3 2v1l-19-1-85-7-10-2-3-7-1-9-5-91v-9z" fill="#49D5E8"/>
<path transform="translate(798,751)" d="m0 0 7 1 6 7 13 33 9 21 2 1v-32l1-25 5-5h9l5 3 1 1 1 7v114l-2 6-4 2h-10l-6-8-14-34-6-15-3-3-1 55-5 5h-11l-4-4-1-9v-114l4-5z" fill="#36F7E2"/>
<path transform="translate(691,751)" d="m0 0 6 1 6 8 5 11 11 29 6 12 1 1 1-52 3-6 6-4 7 1 6 7v117l-2 7-4 2h-9l-5-5-7-15-16-39-1-2-1 4-1 53-3 3-3 1h-10l-4-2-1-3v-122l4-5z" fill="#36F7E2"/>
<path transform="translate(601,752)" d="m0 0h12l10 3 6 4 6 7 4 10 1 5v75l-3 12-7 10-7 5-8 2h-17l-8-3-8-7-6-12-1-4v-81l4-11 7-8 8-5zm1 21-5 5-2 7v68l4 9 4 3h8l6-5 2-6v-70l-4-8-4-3z" fill="#36F7E2"/>
<path transform="translate(1022,752)" d="m0 0h12l10 3 8 6 6 10 3 14v9l-4 6-2 1h-10l-5-5-2-13-5-8-1-1h-9l-5 5-1 4v72l3 6v2l4 1h8l5-5 1-3 1-11 4-7 4-2h7l6 5v18l-3 9-6 9-8 6-7 2h-18l-10-4-7-7-5-10-1-4v-81l4-11 6-8 9-6z" fill="#36F7E1"/>
<path transform="translate(495,752)" d="m0 0h13l12 4 7 6 6 12 2 17-2 7-4 3h-9l-5-3-2-8-2-10-3-5-7-2-7 3-3 7v72l3 6 4 3h8l5-5 2-13 2-6 5-4h7l6 3 2 6-1 15-4 11-9 10-11 4h-18l-8-3-7-6-6-12-2-9v-72l3-12 6-10 10-7z" fill="#36F6E2"/>
<path transform="translate(903,752)" d="m0 0h47l4 2 2 4v7l-3 6-1 1-33 1 1 35 25 1 5 3 1 9-3 6-10 2-18 1-1 35 32 1 3 1 2 6-1 9-3 3h-50l-4-4v-123z" fill="#36F6E2"/>
<path transform="translate(980,625)" d="m0 0h19l8 3 11 7 7 8 5 10 2 14-2 13-5 10-9 10-10 6-7 2h-19l-9-3-9-6-8-9-6-13-1-5v-11l3-10 5-9 7-8 11-7zm6 23-7 3-5 5-3 6v9l4 8 5 4 5 2h9l8-5 4-5 1-3v-12l-6-8-6-3z" fill="#36F7E1"/>
<path transform="translate(826,610)" d="m0 0 12 1 11 4 9 6 7 7 5 10 3 12-1 11-5 12-6 8-8 7-12 5-5 1h-14l-11-4-8-6-7-7-6-12-2-9v-8l3-11 5-10 9-9 11-6zm-2 24-8 5-4 7-1 9 3 8 8 7 2 1h10l8-4 5-6 1-2v-13l-4-6-6-5-3-1z" fill="#49D5E8"/>
<path transform="translate(1363,751)" d="m0 0 8 1 5 5 8 17 6 13 2 1 2-6 11-24 4-5 2-1h11l4 2 1 2-1 9-10 24-13 30-1 9-1 54-5 3h-10l-5-3-1-7-1-55-15-35-10-23v-5l5-5z" fill="#36F7E2"/>
<path transform="translate(1263,752)" d="m0 0h50l4 5v10l-4 5-26 1h-7l1 35 24 1 3 1 1 8-1 8-4 2-23 1-1 52-3 3-2 1h-11l-5-5v-123l2-4z" fill="#36F7E2"/>
<path transform="translate(1097,752)" d="m0 0h58l5 5v10l-4 5-18 2-1 107-5 4h-12l-4-4-1-107-15-1-5-2-3-7 1-7z" fill="#36F7E2"/>
<path transform="translate(902,578)" d="m0 0h21l62 5 43 4 19 1 7-3 4-3-3 9-7 1-2-1v2h-9l-2 1-33-1-6-1-15-1-2-1-1 2-26 1-2 2v3l5 1 3 2h9l7-2 10-1h18l9 4 1 3h2v3l-9-2-12-2h-10l-10 2-13 5-9 6-10 9-3 4h-24l-16-2-3-2 2-4 10-2 2-2-2-2h3l-2-7-2-2 1-5h2v-2h-2v-2h5v-3h8l1-3-2-2 1-1-5-1-3-1v-2l-4-1-7-3z" fill="#34E3DB"/>
<path transform="translate(1205,752)" d="m0 0h9l5 3 1 1v126l-5 3h-10l-5-2-1-3v-122l4-5z" fill="#36F7E1"/>
<path transform="translate(1011,336)" d="m0 0 3 1 1 10-2 17-5 5-4 1h-8l-9-1-12-1-4 1-7 1-3-1-2 9-3 6 5-5 2 1-1 7 6 1 2 3 6 1 3 7 3 1 3-3v2h2l-1 5-4 3-21-1-33-3-3-2 2-3h3v-2l9-5 3-6h5l5-10 1-5h3l-14-4v-2h-5l-1-3-7-1-1-2 20 1 50 4h10l2-6z" fill="#35E3DB"/>
<path transform="translate(968,448)" d="m0 0 4 2 13 2 13 1 16 3-1 3 4 2 2 2 2 8-1 7h-2l-2 6-4 3-12 2h-15l-13 1-5-1h-20l-10-4-17-4-10-3-2-1-7 1-8-1-7-1-3-3h12l103 9h11l5-2 2-5v-7l-5-5-13-2-67-6-4-2h2l1-2 6-1h9l8 1 3 3 5-3z" fill="#35E2DB"/>
<path transform="translate(925,498)" d="m0 0 10 1 5-1 3 3h20l26 3 16 1v2l5 2 5 3 1 2v12l-3 8-5 5-9 2-11-1-3-1-6 1-10-1-11-1-7-1-9-2-21-3-20-4-4-2 1-1h14l83 7h10l5-4 1-2v-8l-5-5-15-2-51-5-22-2-2-2z" fill="#35E2DC"/>
<path transform="translate(930,238)" d="m0 0h17l17 3 6 2-3 5-9-2-8 1-6 1v2l-10 6h-2v3l3-1 4 2 5 1 12 4 9 5-1 2-9-2-4-1h-25l-17 4-11 5-3-1 4-4h2l1-3 9-4 10-3 3-3h2l1-4 3-3 4-7-2-3h-10l-10 2-8 3-7 2-5 3-4 1v2l-16 8-5 5-8 5 1-5 12-10 18-11 12-5 17-4z" fill="#36E2DC"/>
<path transform="translate(609,977)" d="m0 0 6 2 7 9 4 6v2l5-5 7-10 2-3h8v41l-5 1-3-3v-19l-6 5-4 5-5 1-8-10-2-1-1 21h-7l-1-14 1-27z" fill="#35E3DB"/>
<path transform="translate(1095,977)" d="m0 0h5l9 10 9 11 3 4 1-6 1-18h8v41l-5 1-6-4-11-13-6-7-2 23-5 1-3-3v-28l1-11z" fill="#36E3DC"/>
<path transform="translate(1164,977)" d="m0 0 6 1 8 9 11 14 2 2 1-25h7l1 1v40l-1 1-7-1-7-7-11-14-3-3-1 24h-8l-1-8 1-33z" fill="#35E3DB"/>
<path transform="translate(1113,769)" d="m0 0 6 1 1 4 1 46v15l1 14 1 6v20l-1 3 1 3 7-1 1-1-1-15 1-7 1-30 2-24h1l1 9h1v69l-5 4h-12l-4-4-1-107-7-1 2-3z" fill="#35E3DB"/>
<path transform="translate(841,752)" d="m0 0h9l5 3 1 1 1 7v114l-2 6-2-2-1-16v-34l1-27v-22l-2-21-2-3h-7l-2 4-1 14 2 22-2 22-3 3-5-4-5-11-2-8 2-3 7 16 2 1v-32l1-25z" fill="#39E0DE"/>
<path transform="translate(1032,977)" d="m0 0h14l8 4 6 7 2 6v8l-3 8-4 5-6 4-3 1h-14l-6-3-8-9-1-3v-13l5-8 6-5zm5 7-7 3-4 5-1 9 3 7 4 4 3 1h9l6-4 3-6v-9l-3-6-4-3z" fill="#35E2DC"/>
<path transform="translate(383,977)" d="m0 0h13l8 4 6 7 2 4v13l-5 8-6 5-5 2h-13l-8-4-6-8-1-3v-13l5-8 7-6zm4 7-7 3-3 4-1 3v8l3 6 6 5 7 1 7-3 4-5 1-4v-7l-3-7-8-4z" fill="#37F5E2"/>
<path transform="translate(752,977)" d="m0 0h17l5 3 4 5 1 9-4 8-1 1 1 7 2 5-1 5-6-2-7-10-5-1-1 1-1 10-2 2-6-1v-38l1-3zm7 7-3 3v10l6 2 7-2 1-2v-7l-4-4z" fill="#35E2DC"/>
<path transform="translate(736,751)" d="m0 0 7 1 6 7v117h-1l-2-24-1-16-1-6v-11l-1-11 1-12v-37l-9-1-2 4-2 6h-2l-1 12h3l1 2v30l-2 9-4 1-7-13 1-3 3 3 3 4 1-52 3-6z" fill="#39E0DE"/>
<path transform="translate(302,978)" d="m0 0h7l1 17 18 1v-18h8l1 3-1 38-1 1h-5l-1-1-1-7v-9l-18 1-1 15-1 1h-5l-1-1-1-20v-20z" fill="#35E4DC"/>
<path transform="translate(903,752)" d="m0 0h47v1l-10 1-1 2-7 1-24-1-5 3-1 6 1 2-1 8 1 16v20l1 14 1 5-1 19v8l-2 11-1 10 1 4-3 1-1-2v-123z" fill="#34E3DB"/>
<path transform="translate(1233,977)" d="m0 0h27v6l-1 1-16 1-3 2v8l16 1 1 2-2 6-15 1v7l1 1 18 1 1 1v5h-27l-2-2v-39z" fill="#36E2DC"/>
<path transform="translate(1205,752)" d="m0 0h7l-1 5-5 1-1 3v44l1 27v23l-1 4 1 3-1 7v7l-3 6-2 1-1-3v-122l4-5z" fill="#34E3DB"/>
<path transform="translate(1528,976)" d="m0 0 4 2 11 26 4 14-1 2-6-1-5-8-8-1-6 2-4 7-5 1-1-1 1-9 9-24 5-9zm-1 19-2 7 5 1 2-1-1-6z" fill="#35E2DC"/>
<path transform="translate(698,976)" d="m0 0 5 5 10 25 3 9v4l-4 1-5-5-2-4-3-1h-7l-5 2-4 7h-5l-1-4 7-20 8-17zm-1 19-3 4v3l4 1 4-2-3-6z" fill="#35E3DC"/>
<path transform="translate(447,977)" d="m0 0h19l7 6 2 5-1 9-4 5-5 3-4 1h-9l-1 13h-6l-1-7v-32zm7 7-2 2v11l4 2 7-1 4-4-1-7-4-3z" fill="#35E2DC"/>
<path transform="translate(1590,976)" d="m0 0 8 1 6 5 1 4-3 2-12-3h-2l1 6 9 3 6 4 3 3 1 8-4 7-4 3-3 1h-11l-6-3-1-2v-6l2-1 11 5 6-1v-7l-6-4-9-4-3-3-1-2v-7l3-5z" fill="#36E2DC"/>
<path transform="translate(555,977)" d="m0 0h10l5 3 2 4-1 4-7-1-2-1h-6l1 4 14 7 4 5 1 6-3 6-6 5-2 1h-11l-7-4-1-6 4-1 8 4 6-1 1-1v-6l-7-4-8-5-4-6 2-7z" fill="#36E2DC"/>
<path transform="translate(249,977)" d="m0 0h11l6 5 1 4-1 2-16-2 1 4 11 5 7 6 1 7-4 8-7 4h-11l-6-4-1-7 6 1 5 3 6-1 2-2v-6l-5-2-9-4-4-4-1-7 3-6z" fill="#36E2DC"/>
<path transform="translate(967,977)" d="m0 0h14l4 2 2 3-1 4-13-1-7 2-4 5-1 9 4 8 4 3h10l5-2 5 1-2 6-6 3h-14l-7-4-6-7-2-5v-11l4-8 8-7z" fill="#36E2DC"/>
<path transform="translate(1304,977)" d="m0 0h14l4 2 1 7h-17l-5 3-2 3-1 9 3 7 5 4 6 1 9-3 4 1-2 5-3 3-4 1h-12l-6-3-7-8-2-5v-11l4-8 7-6z" fill="#36E2DC"/>
<path transform="translate(1459,977)" d="m0 0h28l-1 7-19 1-1 11h15l2 1v5l-1 1-15 1-1 14-3 2-5-1-1-12v-27z" fill="#36E2DC"/>
<path transform="translate(947,543)" d="m0 0h11l10 4 14 2 9 2h8l7-1 13 2 7 4v2h7v1l-21-1-67-6-21-2-3-3 4-2h15z" fill="#36E2DC"/>
<path transform="translate(691,751)" d="m0 0 3 1h-2v2h-2v2h-3l-1 7v23l2 61 1 5-1 13-2 13-2 5-2-3v-122l4-5z" fill="#34E3DB"/>
<path transform="translate(982,642)" d="m0 0 11 1 7 4 6 4 4 4 2 12-1 8h-2l-1 4h-2l-2 4-8 5h-5l-5 1-5-1v-2l-5-2-7-7-2-7v-12l7-10zm4 6-7 3-5 5-3 6v9l4 8 5 4 5 2h9l8-5 4-5 1-3v-12l-6-8-6-3z" fill="#35E3DC"/>
<path transform="translate(814,977)" d="m0 0h25l2 1-1 4-3 2-7 1v25l-1 9-1 1h-5l-2-3v-32l-9-2-2-4z" fill="#37E1DD"/>
<path transform="translate(980,625)" d="m0 0h19l4 2-2 1 2 3-10 1h-13l-7 2-6 3-4 4-2 1-5 10-2 6h-2l1 7-1 8 1 11h-2l-3-7-1-5v-11l3-10 5-9 7-8 11-7z" fill="#36E2DC"/>
<path transform="translate(1259,766)" d="m0 0 2 1 1 24 1 6v21l2 15v8l2 10h-2l-1 6h2l-1 3v12h-2l-1 3h-2l-1 2z" fill="#34E4DB"/>
<path transform="translate(1637,977)" d="m0 0h29l1 4-4 3-7 1-1 34h-6l-1-1v-33l-9-1-3-2z" fill="#35E4DC"/>
<path transform="translate(1356,977)" d="m0 0h28l2 3-2 3-8 2-1 5-1 29-4 1-3-2v-33l-9-1-3-3z" fill="#36E3DC"/>
<path transform="translate(922,432)" d="m0 0h19l51 5v1l-6 2-6 3-5 1-3 2h-8l-8-4-16-4-8 1-2-1v-2l-7-2z" fill="#35E2DB"/>
<path transform="translate(383,977)" d="m0 0h13l5 2 2 9 4 3 1 7-4 3-2-10-4-4-5-2-10 1-5 5-1 3v8l1 7h-6l-1-2-2 1-1-3v-13l5-8 7-6z" fill="#35E3DC"/>
<path transform="translate(703,816)" d="m0 0 5 5 7 18 3 5 5 13 1 2-1 2-3-1-14-34-1-2-1 4-1 49h-2l-1 3-1-1-1-15 1-20 1-25z" fill="#34E3DB"/>
<path transform="translate(854,783)" d="m0 0h2v98l-2 2-1-2-1-16v-34z" fill="#34E3DB"/>
<path transform="translate(1380,823)" d="m0 0h1v10h2v4h2l1 22 1 18 2 6-6 1-2-2-1-7z" fill="#38E1DD"/>
<path transform="translate(1604,999)" d="m0 0 3 2 1 8-4 7-4 3-3 1h-11l-6-3-1-2v-6l2-1 11 5 6-1 1-6 4-2z" fill="#38F3E2"/>
<path transform="translate(843,614)" d="m0 0 6 1 9 6 7 7 5 10 3 12-1 11-5 12-2 3h-2l1-7h2l1-6 1-10-2-10-3-9v-2h-2v-4h-2l-2-4-2-1v-2l-4-1v-2l-5-1z" fill="#37E1DC"/>
<path transform="translate(962,696)" d="m0 0 10 5 9 2h18l10-3 7-4 1 3-9 6-9 3h-19l-9-3-9-6z" fill="#36E2DC"/>
<path transform="translate(1029,423)" d="m0 0 2 3v6l-6 9h-2v2l-4 1h-15l-8-1v-2h-4v-2l3-1h23l6-4 3-5z" fill="#35E3DC"/>
<path transform="translate(728,780)" d="m0 0h3l1 2v30l-2 9-4 1-7-13 1-3 3 3 3 4v3h2z" fill="#34E3DB"/>
<path transform="translate(1018,773)" d="m0 0 3 1-3 5-1 4-1 71-3-3-2-11 1-21 1-5h1l1-31-2-1 3-8z" fill="#36E2DC"/>
<path transform="translate(1279,826)" d="m0 0 4 2-2 1-1 52-1 2-3-1-1-18 1-6v-24l2-7z" fill="#34E3DB"/>
<path transform="translate(1649,991)" d="m0 0 6 1v27h-6l-1-1v-25z" fill="#36F7E2"/>
<path transform="translate(1287,769)" d="m0 0h12l9 2v1l-21 1h-7l1 35 14 1v1l-16 1-1-25h-1v-14l3-2z" fill="#34E3DB"/>
<path transform="translate(639,788)" d="m0 0h1v68h-1l-3-27 1-15-1-4 1-12 1-1z" fill="#34E3DB"/>
<path transform="translate(1411,752)" d="m0 0 4 1h-3v2h-2l-1 5-4 8-3 9-4 9-4 1-1-3 12-26 4-5z" fill="#36E2DC"/>
<path transform="translate(1132,424)" d="m0 0 3 2-5 12-7 26-1-4h-2l2-9 2-13 4-8v-2h3z" fill="#36E2DC"/>
<path transform="translate(1039,845)" d="m0 0 3 4v7l-2 7-6 5-3 2h-6l-6-4-2-5h3v2l4 1h8l5-5 1-3z" fill="#36E2DC"/>
<path transform="translate(933,450)" d="m0 0h12l8 1 3 4 6 1v1l-18-1-13-1-4-2h2l1-2z" fill="#38E1DD"/>
<path transform="translate(918,769)" d="m0 0h22l10 1 2 2-33 1v30h-1l-1-32z" fill="#3ADFDF"/>
<path transform="translate(1098,752)" d="m0 0h38l-4 3-6 1h-21l-7-1z" fill="#34E4DB"/>
<path transform="translate(880,608)" d="m0 0 6 3 3 1 2 6-1 2h2l-1 6-5-2-7-10-2-5z" fill="#35E2DC"/>
<path transform="translate(848,589)" d="m0 0 16 4 6 5h2v2h2l-1 4-5-1-8-5-11-5v-2l-2-1z" fill="#37E1DD"/>
<path transform="translate(1215,821)" d="m0 0h3v41l-1 5h-2z" fill="#34E4DB"/>
<path transform="translate(1321,1010)" d="m0 0 4 1-2 5-3 3-4 1h-12l-6-3-2-3 5 2 6 2 4-1 4-4z" fill="#37F3E2"/>
<path transform="translate(810,818)" d="m0 0 4 1 5 11-2 3-4-8h-1l-1 40h-2v-44z" fill="#34E4DB"/>
<path transform="translate(833,631)" d="m0 0 8 2 7 6 1 4 3 1v9l-3 4-2-11-4-6-5-4-6-3z" fill="#36E2DC"/>
<path transform="translate(995,397)" d="m0 0 7 1 1 1v6l-4 2h-3l-1-2-7-3 1-3z" fill="#34E4DB"/>
<path transform="translate(1039,880)" d="m0 0 6 1-2 2-7 2h-15v-2l-4-1 4-1z" fill="#35E3DB"/>
<path transform="translate(883,473)" d="m0 0h12l13 1v3l-7 1-8-1-7-1z" fill="#37E1DD"/>
<path transform="translate(1018,773)" d="m0 0 3 1-3 5-1 4-1 40h-1v-40l-2-1 3-8z" fill="#34E3DB"/>
<path transform="translate(1287,769)" d="m0 0h12l9 2v1l-21 1h-7l1-3z" fill="#37E1DC"/>
<path transform="translate(617,880)" d="m0 0h6v3l-8 2h-13l2-4h9z" fill="#37E7DE"/>
<path transform="translate(618,854)" d="m0 0 3 1-1 7-6 5-7 1-2-1-4-1v-2h10l5-4z" fill="#36E3DC"/>
<path transform="translate(714,840)" d="m0 0 3 1 4 10 3 8-1 2-3-1-7-17z" fill="#37E2DD"/>
<path transform="translate(1085,374)" d="m0 0 3 1 1 3-9 7-5 7-2 3-1-3 8-13 4-2z" fill="#36E2DC"/>
<path transform="translate(1200,377)" d="m0 0h3l-2 4-8 1-7 2h-7l-2-2z" fill="#36E2DC"/>
<path transform="translate(798,751)" d="m0 0 7 1 6 7 2 7-4-2-2-5-4-4-3-1v2h-5l1-4z" fill="#36E3DC"/>
<path transform="translate(515,840)" d="m0 0 1 3v9l-2 6-1 5-4 3-3-2 5-5 2-13z" fill="#38E2DD"/>
<path transform="translate(1542,1010)" d="m0 0h3l2 9-5 1-3-3-2-6z" fill="#37F3E1"/>
<path transform="translate(821,840)" d="m0 0 5 5 5 10v4l-3 1-7-17z" fill="#37E2DD"/>
<path transform="translate(920,809)" d="m0 0h25v1l-16 3-8-1z" fill="#35E2DC"/>
<path transform="translate(854,783)" d="m0 0h2v28l-3-1z" fill="#34EDDE"/>
<path transform="translate(604,770)" d="m0 0h5l10 5 2 3-1 4-2 2-4-8-3-2-7-1z" fill="#38E1DD"/>
<path transform="translate(1029,668)" d="m0 0 2 2-1 10-5 10h-3l2-6 3-6 1-9z" fill="#37E1DD"/>
<path transform="translate(1031,771)" d="m0 0 5 2 5 5 1 5h-2v6h-1l-2-8-4-6-1-1-7-1v-1z" fill="#38E1DD"/>
<path transform="translate(987,401)" d="m0 0 9 4 1 3h-13l-2-2z" fill="#38F4E2"/>
<path transform="translate(1192,1013)" d="m0 0 7 1 1 5-1 1-7-1-3-3 1-2 2 1z" fill="#38F2E3"/>
<path transform="translate(1013,632)" d="m0 0 8 6 5 7-1 2h-2l-4-6-6-4z" fill="#37E6DE"/>
<path transform="translate(810,818)" d="m0 0 4 1 5 11-2 3-4-8-3 1-1-5z" fill="#35E3DC"/>
<path transform="translate(1042,367)" d="m0 0 24 2v1l-7 1-2 1-11-1-4-2z" fill="#39E0DE"/>
<path transform="translate(329,1012)" d="m0 0 1 2 6-2v7l-1 1h-5l-1-1z" fill="#37F5E2"/>
<path transform="translate(875,1014)" d="m0 0 5 1 1 6-4 2-3-3v-5z" fill="#39E0DE"/>
<path transform="translate(1012,755)" d="m0 0h2l-2 4-4 3h-3l-1 4-3 3v-4l6-7z" fill="#37E5DE"/>
<path transform="translate(691,751)" d="m0 0 3 1h-2v2h-2v2h-3l-1 5-3 1-1-4 4-5z" fill="#37E3DD"/>
<path transform="translate(976,400)" d="m0 0h2v2l3 1v4h-8l-4-2 6-1z" fill="#38F2E2"/>
<path transform="translate(1528,976)" d="m0 0 4 2 3 9-5-3-5-6z" fill="#38F2E2"/>
<path transform="translate(445,1009)" d="m0 0 3 4h2l1-2v8h-6z" fill="#36F7E2"/>
<path transform="translate(1083,612)" d="m0 0h1l-1 9-4 14h-3l1-4h2l-1-3 3-9z" fill="#37E1DD"/>
<path transform="translate(1086,371)" d="m0 0 10 1v2l-5 3-4-1z" fill="#39EBE1"/>
<path transform="translate(604,881)" d="m0 0h8v3 1h-10z" fill="#34E4DB"/>
<path transform="translate(874,523)" d="m0 0h14l4 2-6 1-10-1z" fill="#38E0DD"/>
<path transform="translate(308,1009)" d="m0 0h1v10l-1 1h-5l-1-2h3l1-4 2 1z" fill="#37F5E2"/>
<path transform="translate(921,866)" d="m0 0h13l-4 1v2l-6 1-3-2z" fill="#34E4DB"/>
<path transform="translate(640 1e3)" d="m0 0h1l1 11 5 3v2l-6-1-1-2z" fill="#41E3E6"/>
<path transform="translate(1512,1014)" d="m0 0 4 1 1 4-5 1-1-5z" fill="#37F5E2"/>
<path transform="translate(597,773)" d="m0 0h4l-4 8-3-1 2-6z" fill="#37E2DD"/>
<path transform="translate(1143,418)" d="m0 0 3 2v2l-9 2v-4l4-1 2 1z" fill="#37E1DD"/>
<path transform="translate(1363,751)" d="m0 0 4 1h-3v4h-6l1-4z" fill="#38E1DD"/>
<path transform="translate(1411,752)" d="m0 0 4 1h-3v2h-2v3l-5 3 1-4z" fill="#38E9DF"/>
<path transform="translate(1029,668)" d="m0 0 2 2v6l-1 2h-2v-9z" fill="#35E2DC"/>
</svg>
